# xmcd
#
# Track frame offsets: 
#        150
#        24855
#        40665
#        60158
#        82036
#        103231
#        123976
#        136591
#        156354
#        177617
#        206762
#
# Disc length: 3030 seconds
#
# Revision: 0
# Processed by: cddbd v1.5.2PL0 Copyright (c) Steve Scherf et al.
# Submitted via: ExactAudioCopy v1.0b1
#
DISCID=8c0bd40b
DTITLE=Rita Chiarelli And The TBSO - Uptown Goes Downtown
DYEAR=2008
DGENRE=Blues
TTITLE0=I Can Change
TTITLE1=Back To Blue
TTITLE2=Midnight In Berlin
TTITLE3=Serves You Right
TTITLE4=Reginella
TTITLE5=Loving You
TTITLE6=Baby Please
TTITLE7=If You Were Crying
TTITLE8=The Thrill Is Gone
TTITLE9=Dicinticello Vuje
TTITLE10=You Don't Say
EXTD=
EXTT0=
EXTT1=
EXTT2=
EXTT3=
EXTT4=
EXTT5=
EXTT6=
EXTT7=
EXTT8=
EXTT9=
EXTT10=
PLAYORDER=
